<svg xmlns="http://www.w3.org/2000/svg" viewBox="0 0 635.35 203.55"><g id="Layer_2" data-name="Layer 2"><g id="Layer_1-2" data-name="Layer 1"><path d="M107.07,108.47V77.3h17a35.53,35.53,0,0,1,8.46,1.09,15.4,15.4,0,0,1,6.37,3.26,12.22,12.22,0,0,1,3.49,4.61,16.42,16.42,0,0,1,1.22,6.63,14.34,14.34,0,0,1-1.34,6.37,14.61,14.61,0,0,1-3.66,4.72,17.2,17.2,0,0,1-6.27,3.3,29.3,29.3,0,0,1-8.12,1.19Zm27.59,47a18.25,18.25,0,0,0,6-3.3,14.75,14.75,0,0,0,4.17-5.35,16.91,16.91,0,0,0,1.45-7.1,20.3,20.3,0,0,0-1.21-7.29,14,14,0,0,0-3.58-5.44,16.45,16.45,0,0,0-5.85-3.47,24.54,24.54,0,0,0-7.87-1.33H107.07v34.47h19.78A24.43,24.43,0,0,0,134.66,155.46Zm5.89,14.29c-27.34,23-62.87,37.14-87.8,33.11-60.41-9.75-65.18-148.68-33.3-185s83-10.52,123.3,17.87c48.63,34.26,45.12,75.81,21.28,109a36.93,36.93,0,0,0,.28-5,28.26,28.26,0,0,0-1.23-8.42,24.48,24.48,0,0,0-3.64-7.3,25.63,25.63,0,0,0-5.75-5.51,25.35,25.35,0,0,0-8.33-3.7v-.16a32.2,32.2,0,0,0,5.81-3,24.28,24.28,0,0,0,4.53-3.93,21.78,21.78,0,0,0,4.39-7.1,25.09,25.09,0,0,0,1.61-8.65,28.47,28.47,0,0,0-2.89-13.21,25.37,25.37,0,0,0-8-9.19,35.79,35.79,0,0,0-12.07-5.35,60.79,60.79,0,0,0-14.9-1.77H107.07V77.3H89v79.35h18.12V171.5H126.7A52.85,52.85,0,0,0,140.55,169.75ZM80.77,125.23H28.1V91.12H73.19V76.6H28.1V45.87H80.38V31H28.1v14.9H10v79.36H28.1v14.83H80.77ZM289.49,78.32a3.88,3.88,0,0,1-.45,1.86,5,5,0,0,1-1.35,1.54,8.21,8.21,0,0,1-2.91,1.37,15.74,15.74,0,0,1-4.24.51,16.91,16.91,0,0,1-3.55-.37A9.57,9.57,0,0,1,273.86,82a7.08,7.08,0,0,1-2.32-2.17,6.39,6.39,0,0,1-1-3.3h-9.06a11.59,11.59,0,0,0,1.25,5.15,13.36,13.36,0,0,0,3.67,4.5,18.64,18.64,0,0,0,5.92,3.2,24.91,24.91,0,0,0,8.1,1.21,27.57,27.57,0,0,0,7.47-.94A19.07,19.07,0,0,0,293.63,87a12.27,12.27,0,0,0,3.69-4,10.41,10.41,0,0,0,1.31-5.15,9.64,9.64,0,0,0-1.25-5,11.92,11.92,0,0,0-3.52-3.68,22.21,22.21,0,0,0-5.47-2.5A56.88,56.88,0,0,0,281.32,65a34.57,34.57,0,0,1-4.59-1.06,11,11,0,0,1-2.83-1.29,3.79,3.79,0,0,1-1.52-1.54,4.52,4.52,0,0,1,.07-4A4.8,4.8,0,0,1,274,55.43a7.67,7.67,0,0,1,2.6-1.23,13.5,13.5,0,0,1,3.69-.45,12.22,12.22,0,0,1,4,.61A7.82,7.82,0,0,1,287.1,56a6,6,0,0,1,1.43,1.93,5.49,5.49,0,0,1,.49,2.25h9.33a11.47,11.47,0,0,0-1.25-5.31,12.66,12.66,0,0,0-3.55-4.26,18,18,0,0,0-5.7-2.83,25.73,25.73,0,0,0-7.58-1,23.7,23.7,0,0,0-7.17,1,17.47,17.47,0,0,0-5.49,2.77,12.47,12.47,0,0,0-3.53,4.08,10.36,10.36,0,0,0-1.23,4.91,9,9,0,0,0,1.21,4.72,11.11,11.11,0,0,0,3.36,3.52,21.36,21.36,0,0,0,5.21,2.66,48,48,0,0,0,6.7,1.83,43.73,43.73,0,0,1,4.88,1.17,16.61,16.61,0,0,1,3.17,1.33A5.33,5.33,0,0,1,289,76.37,4,4,0,0,1,289.49,78.32Zm39.14-41.13h-9.38V47.5H309v7h10.23V75.28a19.9,19.9,0,0,0,1.08,7,12.44,12.44,0,0,0,3,4.73,11.63,11.63,0,0,0,4.59,2.75,18.69,18.69,0,0,0,5.88.88,35.26,35.26,0,0,0,3.54-.18c1.18-.11,2.32-.28,3.42-.48a27.33,27.33,0,0,0,3.06-.77,10.23,10.23,0,0,0,2.44-1.07l-1-6.44-1.74.37c-.69.14-1.43.26-2.21.37s-1.64.23-2.5.31-1.69.12-2.5.12a11.44,11.44,0,0,1-3.08-.39,5.79,5.79,0,0,1-2.42-1.33,5.91,5.91,0,0,1-1.59-2.48,12,12,0,0,1-.56-3.93V54.5h15.9v-7h-15.9Zm56.95,52.58h8.48V47.5h-9.38V77.43a10.05,10.05,0,0,1-1.33,2.13,9.1,9.1,0,0,1-1.79,1.66,10.37,10.37,0,0,1-2.82,1.23,13.4,13.4,0,0,1-3.63.45,10.26,10.26,0,0,1-3.4-.51,5.06,5.06,0,0,1-2.38-1.72A7.52,7.52,0,0,1,368,77.52a23.94,23.94,0,0,1-.43-4.9V47.5H358.2v25a28.1,28.1,0,0,0,1.05,8.19,15.06,15.06,0,0,0,3,5.6,11.81,11.81,0,0,0,4.67,3.23,16.92,16.92,0,0,0,6,1,13.56,13.56,0,0,0,6.92-1.78A15.76,15.76,0,0,0,385,83.87Zm19.06-21.45v.83a29.63,29.63,0,0,0,1.17,8.49,21.45,21.45,0,0,0,3.32,6.78,15.39,15.39,0,0,0,5.24,4.51,16,16,0,0,0,13.44.27,13.91,13.91,0,0,0,4.84-3.84l.43,4.41h8.48v-60h-9.34V51.45a13.69,13.69,0,0,0-10.82-4.73,14.89,14.89,0,0,0-12.27,6,20.59,20.59,0,0,0-3.34,6.82A31.59,31.59,0,0,0,404.64,68.32Zm9.34.83v-.83a24.93,24.93,0,0,1,.55-5.37,13.69,13.69,0,0,1,1.75-4.43,8.38,8.38,0,0,1,3-3,8.66,8.66,0,0,1,4.47-1.09,9,9,0,0,1,5.18,1.39,10.05,10.05,0,0,1,3.3,3.73V77.7a10,10,0,0,1-3.32,3.77,9.23,9.23,0,0,1-5.23,1.39,8.21,8.21,0,0,1-7.43-4.07,13.16,13.16,0,0,1-1.71-4.33A24.5,24.5,0,0,1,414,69.15ZM456.05,47.5v7.78h13V82h-13v7.73h34.84V82H478.47V47.5Zm17.38-16.09a4.79,4.79,0,1,0,4.78,4.79A4.78,4.78,0,0,0,473.43,31.41Zm26.76,36.84v.82a26.25,26.25,0,0,0,1.33,8.55,19.78,19.78,0,0,0,3.86,6.8A17.4,17.4,0,0,0,511.56,89a21.77,21.77,0,0,0,16.58,0,17.46,17.46,0,0,0,6.15-4.53,20.22,20.22,0,0,0,3.83-6.8,26.52,26.52,0,0,0,1.33-8.55v-.82a26.64,26.64,0,0,0-1.33-8.54,20.07,20.07,0,0,0-3.83-6.81,18,18,0,0,0-6.19-4.54,21.77,21.77,0,0,0-16.58,0,17.67,17.67,0,0,0-6.14,4.54,19.64,19.64,0,0,0-3.86,6.81A26.36,26.36,0,0,0,500.19,68.25Zm9.34.82v-.82a23.13,23.13,0,0,1,.6-5.32,13.46,13.46,0,0,1,1.9-4.45,9.56,9.56,0,0,1,3.18-3,10,10,0,0,1,9.22,0,10,10,0,0,1,3.22,3,15,15,0,0,1,1.84,4.45,22.6,22.6,0,0,1,.62,5.32v.82a23.37,23.37,0,0,1-.6,5.39,14.2,14.2,0,0,1-1.86,4.45,9.3,9.3,0,0,1-15.62,0,13.37,13.37,0,0,1-1.9-4.45A23.37,23.37,0,0,1,509.53,69.07ZM250.77,40.67H223.51V32.9h27.26ZM251,82v7.73H223.51V82ZM223.51,64.26V82h-9.42V40.67h9.42v16H247v7.57Zm67.58,65.65a16.06,16.06,0,0,0-8,2,19.24,19.24,0,0,0-6.19,5.59l0-1-.39-5.86h-8.75V173h9.33v-26.1a14.11,14.11,0,0,1,1.84-3.32,9.19,9.19,0,0,1,2.66-2.38,10.52,10.52,0,0,1,3.32-1.45,17.52,17.52,0,0,1,4.22-.47,36.53,36.53,0,0,1,4.16.24,40.52,40.52,0,0,1,4.23.7l1.33-9.22a19.2,19.2,0,0,0-3.34-.74A30,30,0,0,0,291.09,129.91Zm20.94.78v7.77h13v26.76H312V173h34.84v-7.74H334.45V130.69Zm17.42-16.09a4.79,4.79,0,1,0,4.78,4.78A4.78,4.78,0,0,0,329.45,114.6ZM359.68,113v7.77H373v44.49H359.68V173h35.59v-7.74H382.45V113Zm48,0v7.77h13.36v44.49H407.69V173h35.59v-7.74H430.46V113Zm73.2,60h9.53v-.67a15.78,15.78,0,0,1-1.19-3.92,29.66,29.66,0,0,1-.41-5.14V144.44a14.39,14.39,0,0,0-1.33-6.35,12.49,12.49,0,0,0-3.67-4.55,16.39,16.39,0,0,0-5.56-2.71,24.93,24.93,0,0,0-6.94-.92A23.42,23.42,0,0,0,464,131a16.51,16.51,0,0,0-5.41,2.91,12.34,12.34,0,0,0-3.44,4.14,11.28,11.28,0,0,0-1.21,4.89h9.38a5.87,5.87,0,0,1,.44-2.29,4.58,4.58,0,0,1,1.39-1.82,6.82,6.82,0,0,1,2.36-1.28,10.52,10.52,0,0,1,3.34-.47,12.09,12.09,0,0,1,3.73.52,8.15,8.15,0,0,1,2.76,1.51,6.77,6.77,0,0,1,1.62,2.3,7.49,7.49,0,0,1,.57,3v2.85h-6.8a35.54,35.54,0,0,0-8.18.86,18.92,18.92,0,0,0-6.08,2.5,11.68,11.68,0,0,0-4,4.44,13.09,13.09,0,0,0-1.39,6.15,11.76,11.76,0,0,0,1.08,5,11.19,11.19,0,0,0,3,4,14,14,0,0,0,4.63,2.64,17.89,17.89,0,0,0,6,1,17.5,17.5,0,0,0,3.79-.39,16.85,16.85,0,0,0,3.28-1.1,13.89,13.89,0,0,0,2.75-1.58,18.3,18.3,0,0,0,2.21-1.93c.13.8.28,1.58.45,2.32A7.79,7.79,0,0,0,480.89,173Zm-11.36-6.72a9.76,9.76,0,0,1-3.13-.45,6.55,6.55,0,0,1-2.23-1.23,5.07,5.07,0,0,1-1.36-1.9,6,6,0,0,1-.47-2.4,6.84,6.84,0,0,1,.56-2.81,5.61,5.61,0,0,1,1.74-2.15,9.49,9.49,0,0,1,3.56-1.62,21.41,21.41,0,0,1,5.27-.57h6v7.81a7.57,7.57,0,0,1-1.45,2,10.85,10.85,0,0,1-2.23,1.68,13.31,13.31,0,0,1-2.87,1.21A12,12,0,0,1,469.53,166.24ZM501.91,173h9.33V142.8a12,12,0,0,1,1.45-2,9.66,9.66,0,0,1,1.76-1.53,10,10,0,0,1,2.69-1.27,11,11,0,0,1,3.21-.45,13.61,13.61,0,0,1,3.67.45,6.47,6.47,0,0,1,2.73,1.51,6.54,6.54,0,0,1,1.72,2.81,14,14,0,0,1,.59,4.37V173h9.33V146.59a24.17,24.17,0,0,0-1-7.6,14,14,0,0,0-3-5.18,11.34,11.34,0,0,0-4.61-3,17.88,17.88,0,0,0-5.94-.94A15.37,15.37,0,0,0,515,132.6a16.8,16.8,0,0,0-2.2,1.86,17.13,17.13,0,0,0-1.9,2.25l-.58-6h-8.44Zm66.76-52.58h-9.38v10.31H549.06v7h10.23v20.78a20.21,20.21,0,0,0,1.07,7,12.54,12.54,0,0,0,3,4.72,11.77,11.77,0,0,0,4.59,2.76,19,19,0,0,0,5.88.88,35.26,35.26,0,0,0,3.54-.18c1.18-.12,2.32-.28,3.42-.49a27.37,27.37,0,0,0,3.06-.76,11.1,11.1,0,0,0,2.44-1.07l-1-6.45-1.74.37c-.69.14-1.43.27-2.21.37s-1.64.24-2.5.31-1.69.12-2.5.12a11.44,11.44,0,0,1-3.08-.39,5.78,5.78,0,0,1-2.43-1.33,5.93,5.93,0,0,1-1.58-2.48,11.66,11.66,0,0,1-.56-3.92v-20.2h15.89v-7H568.67Zm49,53.36a21.34,21.34,0,0,0,10.53-2.43,18.63,18.63,0,0,0,6.46-5.46l-5-4.85a12.79,12.79,0,0,1-5,3.85,15.64,15.64,0,0,1-6.48,1.35,12.4,12.4,0,0,1-4.67-.86,10.9,10.9,0,0,1-3.69-2.42,11.46,11.46,0,0,1-2.46-3.36,16.49,16.49,0,0,1-1.33-4.65v-.2h29.3v-4a27.5,27.5,0,0,0-1.22-8.36,18.48,18.48,0,0,0-3.59-6.6,16.51,16.51,0,0,0-5.9-4.28,19.91,19.91,0,0,0-8.08-1.54,19.42,19.42,0,0,0-7.72,1.54,19.23,19.23,0,0,0-6.35,4.4,20.54,20.54,0,0,0-4.29,6.87,24.69,24.69,0,0,0-1.57,9v1.6a21.37,21.37,0,0,0,1.51,8.06,18.8,18.8,0,0,0,4.28,6.47,19.44,19.44,0,0,0,6.66,4.33A22.81,22.81,0,0,0,617.65,173.74Zm-1.13-36.25a9.87,9.87,0,0,1,4.12.8,8.48,8.48,0,0,1,3,2.13,9.9,9.9,0,0,1,1.87,3.18,10.41,10.41,0,0,1,.67,3.65v.63H606.24a17.39,17.39,0,0,1,1.33-4.34,11.93,11.93,0,0,1,2.23-3.28,9.29,9.29,0,0,1,6.72-2.77Zm-363.68,18.9a15.9,15.9,0,0,1-1.44,7.15,14.49,14.49,0,0,1-4.1,5.15,17.74,17.74,0,0,1-6.23,3.18,26.92,26.92,0,0,1-7.84,1.09H223v-7.74h10.31a13.07,13.07,0,0,0,4.07-.62,9.59,9.59,0,0,0,3.12-1.73,7.75,7.75,0,0,0,2.17-2.78,8.78,8.78,0,0,0,.76-3.7,10.58,10.58,0,0,0-.63-3.8,7.45,7.45,0,0,0-1.87-2.85,8.8,8.8,0,0,0-3.05-1.81,13.12,13.12,0,0,0-4.1-.69H223v18h-9.45V123.85H223V140.1H232a15.64,15.64,0,0,0,4.23-.62,8.81,8.81,0,0,0,3.27-1.73,7.25,7.25,0,0,0,2.61-5.77,8.51,8.51,0,0,0-.64-3.46,6.29,6.29,0,0,0-1.82-2.41,8.09,8.09,0,0,0-3.32-1.69,17.71,17.71,0,0,0-4.41-.57H223v-7.77h8.75a32.2,32.2,0,0,1,7.77.91,18.85,18.85,0,0,1,6.29,2.8,13.17,13.17,0,0,1,4.16,4.79,14.84,14.84,0,0,1,1.51,6.89,13.24,13.24,0,0,1-.84,4.51,11.4,11.4,0,0,1-2.29,3.69,12.51,12.51,0,0,1-2.36,2.06,17.15,17.15,0,0,1-3,1.57v.09a13.39,13.39,0,0,1,4.34,1.92,13.71,13.71,0,0,1,3,2.87,13.08,13.08,0,0,1,1.9,3.81A14.92,14.92,0,0,1,252.84,156.39Z"/></g></g></svg>