<svg xmlns="http://www.w3.org/2000/svg" viewBox="0 0 593.2 667.14"><g id="Layer_2" data-name="Layer 2"><g id="Layer_1-2" data-name="Layer 1"><path d="M351,355.51V253.35h55.77a117.59,117.59,0,0,1,27.72,3.58,50.24,50.24,0,0,1,20.87,10.69,39.83,39.83,0,0,1,11.45,15.09c2.7,6.16,4,13.39,4,21.75a47.07,47.07,0,0,1-4.4,20.88,47.57,47.57,0,0,1-12,15.46,56.29,56.29,0,0,1-20.56,10.82,95.75,95.75,0,0,1-26.59,3.89Zm90.41,154A60.07,60.07,0,0,0,461,498.73a48.44,48.44,0,0,0,13.65-17.54,55.07,55.07,0,0,0,4.77-23.26,66.77,66.77,0,0,0-4-23.89,46.3,46.3,0,0,0-11.75-17.86A54.58,54.58,0,0,0,444.5,404.8a80.51,80.51,0,0,0-25.78-4.33H351v113h64.82A80.3,80.3,0,0,0,441.36,509.54Zm19.31,46.85C371.06,631.83,254.61,678.1,172.88,664.91-25.09,633-40.73,177.56,63.75,58.53s272-34.48,404.12,58.58c159.41,112.3,147.91,248.47,69.76,357.22a119.28,119.28,0,0,0,.92-16.4,93.16,93.16,0,0,0-4-27.6,80.38,80.38,0,0,0-11.95-23.95,84.66,84.66,0,0,0-18.86-18.05c-7.54-5.34-16.66-9.37-27.28-12.13v-.51a107.33,107.33,0,0,0,19.05-9.93,80.74,80.74,0,0,0,14.84-12.89,71.88,71.88,0,0,0,14.39-23.26A83.32,83.32,0,0,0,530,301.26c0-16.66-3.2-31.12-9.49-43.32a82.79,82.79,0,0,0-26.15-30.11c-11.13-7.86-24.27-13.71-39.55-17.55A199.54,199.54,0,0,0,406,204.5H351v48.85H291.54V513.44H351V562.1h64.32A173.76,173.76,0,0,0,460.67,556.39ZM264.72,410.45H92.09V298.67h147.8V251.08H92.09V150.36H263.47V101.51H92.09v48.85H32.86V410.45H92.09v48.6H264.72Z"/></g></g></svg>